Coordinates
version=1
nRows=17
nColumns=40
inDegrees=yes

Units are S.I. units (second, meters, Newtons, ...)
Angles are in degrees.

endheader
time	pelvis_tilt	pelvis_list	pelvis_rotation	pelvis_tx	pelvis_ty	pelvis_tz	hip_flexion_r	hip_adduction_r	hip_rotation_r	knee_angle_r	knee_angle_r_beta	ankle_angle_r	subtalar_angle_r	mtp_angle_r	hip_flexion_l	hip_adduction_l	hip_rotation_l	knee_angle_l	knee_angle_l_beta	ankle_angle_l	subtalar_angle_l	mtp_angle_l	lumbar_extension	lumbar_bending	lumbar_rotation	arm_flex_r	arm_add_r	arm_rot_r	elbow_flex_r	pro_sup_r	wrist_flex_r	wrist_dev_r	arm_flex_l	arm_add_l	arm_rot_l	elbow_flex_l	pro_sup_l	wrist_flex_l	wrist_dev_l
     10.09000000	     -4.05409227	     -3.01667723	     -1.30709684	      0.71664171	      0.92943891	      0.44033818	     30.59412018	     -3.43133309	     -2.25696646	     71.88388554	     71.88388554	     -2.93754569	    -18.63679847	      7.36598776	     16.01545158	     -1.20063893	     -0.86704489	     23.33025178	     23.33025178	     13.66643305	    -14.01229294	      4.34764285	    -10.17685602	      6.12090650	      1.17778274	      0.23914702	    -14.71622019	    -19.86138866	     25.25682389	     45.91228893	      0.00000000	      0.00000000	     -3.28511457	    -17.92723871	      0.48338395	     67.97020190	     46.53628829	      0.00000000	      0.00000000
     10.10350000	     -4.09409451	     -3.05231241	     -1.38221137	      0.71615421	      0.92981021	      0.44004432	     31.79769249	     -3.29421537	     -2.50842446	     70.70777186	     70.70777186	     -1.80901725	    -18.82497363	      7.24320301	     15.42804462	     -1.22644512	     -0.95843324	     23.07399275	     23.07399275	     13.98454645	    -13.85513160	      4.28404469	    -10.23624448	      6.23120193	      0.78541294	     -0.52713349	    -14.04827607	    -19.82175275	     24.95976944	     45.91624794	      0.00000000	      0.00000000	     -3.02097576	    -18.00365752	      0.40437154	     68.27165253	     46.54960289	      0.00000000	      0.00000000
     10.11700000	     -4.13336390	     -3.12987988	     -1.42773925	      0.71570290	      0.93026609	      0.43978141	     32.84703416	     -3.13888156	     -2.85939071	     69.22729305	     69.22729305	     -0.76721564	    -18.98468481	      7.37582278	     14.72221947	     -1.29600718	     -1.05228563	     22.58258517	     22.58258517	     14.29063649	    -13.54464037	      4.26069211	    -10.31550518	      6.38124199	      0.62325692	     -1.49044238	    -13.33884940	    -19.79742813	     24.59650136	     45.92397708	      0.00000000	      0.00000000	     -2.76389758	    -18.03506100	      0.26630602	     68.92798823	     46.57402532	      0.00000000	      0.00000000
     10.13050000	     -4.02631099	     -3.20792665	     -1.52028481	      0.71532272	      0.93080902	      0.43966374	     33.67257985	     -2.82849300	     -3.01621550	     67.60160661	     67.60160661	      1.03457578	    -19.00683834	     10.23087779	     13.88535036	     -1.43367774	     -1.42628010	     22.16219288	     22.16219288	     14.68068367	    -12.90560625	      4.08816041	    -10.68477804	      6.45385488	      0.47721423	     -2.40446797	    -12.74275224	    -20.21431234	     24.75500938	     45.99543350	      0.00000000	      0.00000000	     -3.29369509	    -18.24072249	     -0.09912252	     71.97825168	     46.69459232	      0.00000000	      0.00000000
     10.14400000	     -4.05047495	     -3.26721571	     -1.58198212	      0.71488398	      0.93112282	      0.43943407	     34.39507623	     -2.65090055	     -3.27983912	     65.48734273	     65.48734273	      1.95259027	    -19.02805082	     10.40088911	     13.22146619	     -1.47658859	     -1.50574436	     21.76021140	     21.76021140	     14.95979714	    -12.69603486	      4.04781132	    -10.76109775	      6.60754689	      0.29342266	     -3.14071437	    -12.21108258	    -20.21044163	     24.48583759	     46.00615460	      0.00000000	      0.00000000	     -3.02521793	    -18.12181726	     -0.22060171	     72.41776608	     46.71712808	      0.00000000	      0.00000000
     10.15750000	     -4.03529339	     -3.36972778	     -1.62545633	      0.71448313	      0.93148300	      0.43927323	     34.87178168	     -2.42153576	     -3.56756574	     62.95044044	     62.95044044	      2.78285760	    -19.00083699	     10.68679543	     12.50479929	     -1.57799924	     -1.61398750	     21.32438146	     21.32438146	     15.25199564	    -12.41639046	      3.98672064	    -10.93582496	      6.78832338	      0.22670838	     -3.81515380	    -11.72461766	    -20.24562865	     24.27830925	     46.01944054	      0.00000000	      0.00000000	     -2.81689051	    -17.99701432	     -0.33941133	     73.16522887	     46.74779773	      0.00000000	      0.00000000
     10.17100000	     -4.15697609	     -3.46092913	     -1.65532394	      0.71399547	      0.93151425	      0.43919333	     35.34298797	     -2.20365790	     -3.85351992	     60.03937735	     60.03937735	      3.46516632	    -18.87034125	     10.82620968	     12.00970709	     -1.66681943	     -1.66409173	     21.00013180	     21.00013180	     15.52229011	    -12.21480179	      3.90688529	    -10.92410213	      6.95485174	      0.05352808	     -4.31910641	    -11.18188204	    -20.24965661	     24.14412893	     46.02375413	      0.00000000	      0.00000000	     -2.67510631	    -17.94038060	     -0.38211143	     73.69505693	     46.76517630	      0.00000000	      0.00000000
     10.18450000	     -4.24350565	     -3.60189562	     -1.70026825	      0.71354024	      0.93158131	      0.43923973	     35.54053846	     -1.89615920	     -4.10274522	     56.63760377	     56.63760377	      4.02101535	    -18.58776950	     10.85136807	     11.46335354	     -1.82593180	     -1.74268227	     20.65330229	     20.65330229	     15.80594891	    -11.96940693	      3.81132631	    -10.97111896	      7.18237402	     -0.03857582	     -4.67623614	    -10.78541969	    -20.26367776	     24.08438691	     46.02772251	      0.00000000	      0.00000000	     -2.58236475	    -17.80219386	     -0.37390312	     74.31302830	     46.78031894	      0.00000000	      0.00000000
     10.19800000	     -4.18980025	     -3.73655872	     -1.79240031	      0.71324931	      0.93170199	      0.43941752	     35.24599932	     -1.61390891	     -4.38719897	     52.57481875	     52.57481875	      3.58320864	    -18.25943458	      7.75101276	     10.77410733	     -2.09257660	     -2.34631340	     20.36795792	     20.36795792	     16.20637778	    -10.94028590	      3.31742466	    -11.26099679	      7.35286797	     -0.17605854	     -4.95923866	    -10.47103752	    -20.53086028	     24.56166964	     46.07067430	      0.00000000	      0.00000000	     -3.13715097	    -17.81214218	     -0.44460354	     76.54010169	     46.86219610	      0.00000000	      0.00000000
     10.21150000	     -4.41384614	     -3.90287572	     -1.83840532	      0.71278937	      0.93143556	      0.43961005	     35.14491314	     -1.27283286	     -4.65153845	     48.29492639	     48.29492639	      3.98307807	    -17.25733391	      7.61165503	     10.41291989	     -2.25612989	     -2.27930206	     20.08126005	     20.08126005	     16.44692370	    -10.95998745	      3.27327005	    -11.13744096	      7.61884557	     -0.27070975	     -4.97619822	    -10.17354085	    -20.49910034	     24.55417313	     46.07224504	      0.00000000	      0.00000000	     -3.05385033	    -17.61854302	     -0.36955890	     76.71957640	     46.86618182	      0.00000000	      0.00000000
     10.22500000	     -4.40961566	     -4.00592326	     -1.88905733	      0.71263336	      0.93139274	      0.43974473	     34.18540322	     -1.13842347	     -5.21718103	     42.88770320	     42.88770320	      1.74577522	    -16.46209123	     -0.42962104	      9.73946970	     -2.38293224	     -2.46226275	     19.71852831	     19.71852831	     16.69137041	    -10.63847864	      2.96417033	    -11.29843034	      7.80005795	     -0.36808522	     -4.85726164	    -10.05972154	    -20.37424982	     24.56457532	     46.14553134	      0.00000000	      0.00000000	     -3.15971890	    -17.43329831	     -0.23395937	     77.40461472	     46.95064011	      0.00000000	      0.00000000
     10.23850000	     -4.54676322	     -4.13284301	     -1.96897271	      0.71244754	      0.93106765	      0.44012746	     33.47855748	     -0.85861126	     -5.64037741	     37.86254390	     37.86254390	      2.08284007	    -14.09622888	     -0.45918769	      9.23838963	     -2.52580100	     -2.49176520	     19.39968814	     19.39968814	     16.96443560	    -10.54417159	      2.86458686	    -11.27703057	      8.02169430	     -0.30098290	     -4.63509668	     -9.93978614	    -20.32453741	     24.65900908	     46.14725073	      0.00000000	      0.00000000	     -3.15448124	    -17.19288538	     -0.05280652	     77.66028821	     46.95182046	      0.00000000	      0.00000000
     10.25200000	     -4.71805656	     -4.23922339	     -2.06674336	      0.71238132	      0.93057883	      0.44062620	     32.57586024	     -0.60495999	     -6.19973924	     32.61764039	     32.61764039	      2.21470821	    -11.09958204	     -0.46558604	      8.74753297	     -2.66004164	     -2.58694291	     19.05279888	     19.05279888	     17.25243999	    -10.39690162	      2.71642387	    -11.21409684	      8.18322155	     -0.23526651	     -4.33200384	     -9.86136399	    -20.26991135	     24.79633816	     46.14628099	      0.00000000	      0.00000000	     -3.21594083	    -16.97728632	      0.19707302	     77.96711765	     46.94783601	      0.00000000	      0.00000000
     10.26550000	     -4.73645108	     -4.16965985	     -2.15337385	      0.71270324	      0.93001743	      0.44106038	     31.39315999	     -0.67877954	     -7.30139876	     27.53495747	     27.53495747	      2.28969476	     -6.88872730	     -0.97086852	      8.00920397	     -2.60672759	     -2.82078604	     18.59862963	     18.59862963	     17.52586784	    -10.04361545	      2.43136871	    -11.28132759	      8.18428732	     -0.15990220	     -3.91723368	     -9.83755257	    -20.13471327	     24.97853969	     46.14904828	      0.00000000	      0.00000000	     -3.34348104	    -16.89412060	      0.58634512	     78.41931243	     46.94902613	      0.00000000	      0.00000000
     10.27900000	     -4.81603769	     -4.12132392	     -2.29509272	      0.71306664	      0.92918939	      0.44181245	     30.25187606	     -0.48461595	     -7.97407838	     22.72468813	     22.72468813	      2.05943667	     -3.52543668	     -0.27390926	      7.40884082	     -2.57036569	     -2.96264257	     18.31272323	     18.31272323	     17.86954195	     -9.97620291	      2.13666423	    -11.24424214	      8.16904425	     -0.04094825	     -3.35244368	     -9.79821025	    -20.01789054	     25.23885508	     46.14479702	      0.00000000	      0.00000000	     -3.48327064	    -16.79897486	      0.91223712	     78.71505293	     46.94565547	      0.00000000	      0.00000000
     10.29250000	     -4.88586248	     -4.11735465	     -2.38138852	      0.71365849	      0.92823995	      0.44275937	     29.11660725	     -0.24760837	     -8.82062382	     18.47180662	     18.47180662	      1.88074046	     -0.34596668	      0.87331585	      6.76353772	     -2.60160013	     -3.03933500	     17.97466542	     17.97466542	     18.15798151	     -9.83842488	      1.86416652	    -11.22081422	      8.17933514	      0.05047637	     -2.78401365	     -9.87808412	    -19.92862541	     25.52019660	     46.13912428	      0.00000000	      0.00000000	     -3.70656259	    -16.69136359	      1.25509319	     78.95686256	     46.93644787	      0.00000000	      0.00000000
     10.30600000	     -4.95067586	     -3.96143482	     -2.50460419	      0.71438685	      0.92713622	      0.44371378	     28.43897634	     -0.31249000	    -10.09182498	     15.73013721	     15.73013721	      3.00856046	      3.44856510	      5.39124381	      6.04207944	     -2.45304975	     -3.18074018	     17.49936175	     17.49936175	     18.19663170	     -9.79233155	      0.98221977	    -11.15853885	      8.02809676	      0.16656662	     -2.19907316	     -9.99279176	    -19.24784305	     25.99401532	     46.13651696	      0.00000000	      0.00000000	     -3.96941259	    -16.75590224	      1.78078013	     79.32878971	     46.99227807	      0.00000000	      0.00000000
